<svg xmlns="http://www.w3.org/2000/svg" viewBox="0 0 1350 389.3"><defs><linearGradient id="simGrad" x1="0" y1="0" x2="1" y2="1"><stop offset="0" stop-color="#7C3411"/><stop offset="0.5" stop-color="#CC785C"/><stop offset="1" stop-color="#F2C7A8"/></linearGradient></defs><g transform="translate(0,0)"><path d="M88.72,332.63v-2.27c-.95-11.92,3.26-34.13,25.04-45.86,19.76-10.64,24.43-13.2,24.49-13.23l.36-.19s11.04-6.06,11.04-16.02v-57.58c-11.02,6.52-58.37,34.51-76.36,44.2-11.55,6.22-10.37,18.93-10.36,19.06l.08,1.45v55.59l25.71,14.84Z" fill="url(#simGrad)"/><path d="M116.73,328.45l.12.91-.06.36v19.11l32.91,19v-70.85c-2.89,1.57-9.39,5.09-22.63,12.22-11.02,5.93-10.44,17.9-10.34,19.24Z" fill="url(#simGrad)"/><path d="M254.08,199.41c-18-9.69-65.34-37.68-76.36-44.2v59.23c0,9.94,10.93,15.96,11.04,16.02l.36.19c.06.03,4.73,2.59,24.49,13.23,21.78,11.73,25.99,33.94,25.04,45.86v44.18l25.71-14.84v-100.06l.08-.53c.08-1.16.66-13.13-10.35-19.06Z" fill="url(#simGrad)"/><path d="M210.59,288.18l.07-.53c.09-1.16.66-13.13-10.35-19.06-13.11-7.06-19.6-10.57-22.54-12.17v112.64s.02,0,.02-.01l32.8-18.93v-61.93Z" fill="url(#simGrad)"/><path d="M316.58,83.62L177.79,3.48c-4.02-2.32-8.51-3.48-13-3.48s-8.98,1.16-13,3.48L13,83.62c-8.04,4.64-13,13.23-13,22.52v160.26c0,9.29,4.96,17.87,13,22.52l21.94,12.67v-38.76c-.95-11.92,3.26-34.13,25.04-45.86,19.48-10.49,77.02-44.62,77.6-44.96l.8-.48.86-.37c.28-.13,10.4-4.84,10.4-14.12v-53.5c-6.56-4.53-10.87-12.1-10.87-20.68,0-13.88,11.25-25.13,25.13-25.13s25.13,11.25,25.13,25.13c0,8.77-4.5,16.49-11.32,20.98v10.92c0,9.28,10.12,13.99,10.55,14.19l.86.37.66.41c.58.34,58.12,34.48,77.6,44.96,21.78,11.73,25.99,33.94,25.04,45.86v82.31l24.16-13.95c8.04-4.64,13-13.23,13-22.52V106.13c0-9.29-4.96-17.87-13-22.52Z" fill="url(#simGrad)"/></g><g><path transform="translate(373.296,255.422) scale(0.28126)" d="M304.0625,7.0312Q234.0625,7.0312 177.9688,-17.5000Q122.0312,-42.0312 90.0000,-87.0312Q57.9688,-132.0312 57.9688,-192.0312L180.0000,-192.0312Q184.0625,-147.0312 215.4688,-117.9688Q247.0312,-89.0625 304.0625,-89.0625Q362.9688,-89.0625 395.9375,-117.5000Q429.0625,-145.9375 429.0625,-190.9375Q429.0625,-225.9375 408.4375,-247.9688Q387.9688,-270.0000 357.5000,-282.0312Q327.0312,-294.0625 272.9688,-307.9688Q205.0000,-325.9375 162.5000,-344.3750Q120.0000,-362.9688 90.0000,-401.8750Q60.0000,-440.9375 60.0000,-505.9375Q60.0000,-565.9375 90.0000,-610.9375Q120.0000,-655.9375 173.9062,-680.0000Q227.9688,-704.0625 299.0625,-704.0625Q400.0000,-704.0625 464.5312,-653.4375Q529.0625,-602.9688 535.9375,-515.0000L410.0000,-515.0000Q407.0312,-552.9688 373.9062,-580.0000Q340.9375,-607.0312 287.0312,-607.0312Q237.9688,-607.0312 206.8750,-582.0312Q175.9375,-557.0312 175.9375,-510.0000Q175.9375,-477.9688 195.4688,-457.5000Q215.0000,-437.0312 245.0000,-425.0000Q275.0000,-412.9688 327.0312,-399.0625Q395.9375,-380.0000 439.3750,-360.9375Q482.9688,-342.0312 513.4375,-302.5000Q544.0625,-262.9688 544.0625,-197.0312Q544.0625,-144.0625 515.4688,-97.0312Q487.0312,-50.0000 432.5000,-21.4062Q377.9688,7.0312 304.0625,7.0312ZM736.9687,-624.0625Q706.0312,-624.0625 684.9374,-645.0000Q663.9999,-665.9375 663.9999,-697.0312Q663.9999,-727.9688 684.9374,-748.9062Q706.0312,-770.0000 736.9687,-770.0000Q766.9687,-770.0000 787.9062,-748.9062Q808.9999,-727.9688 808.9999,-697.0312Q808.9999,-665.9375 787.9062,-645.0000Q766.9687,-624.0625 736.9687,-624.0625ZM793.0624,-550.9375L793.0624,-0.0000L678.9999,-0.0000L678.9999,-550.9375L793.0624,-550.9375ZM1610.0311,-560.0000Q1675.0311,-560.0000 1726.4374,-532.9688Q1777.9999,-505.9375 1807.5311,-452.9688Q1837.0624,-400.0000 1837.0624,-325.0000L1837.0624,-0.0000L1723.9374,-0.0000L1723.9374,-307.9688Q1723.9374,-382.0312 1686.9061,-421.4062Q1650.0311,-460.9375 1585.9686,-460.9375Q1522.0624,-460.9375 1484.5624,-421.4062Q1447.0624,-382.0312 1447.0624,-307.9688L1447.0624,-0.0000L1333.9374,-0.0000L1333.9374,-307.9688Q1333.9374,-382.0312 1296.9061,-421.4062Q1260.0311,-460.9375 1195.9686,-460.9375Q1132.0624,-460.9375 1094.5624,-421.4062Q1057.0624,-382.0312 1057.0624,-307.9688L1057.0624,-0.0000L942.9999,-0.0000L942.9999,-550.9375L1057.0624,-550.9375L1057.0624,-487.9688Q1085.0311,-522.0312 1127.9999,-540.9375Q1170.9686,-560.0000 1220.0311,-560.0000Q1285.9686,-560.0000 1337.9999,-532.0312Q1390.0311,-504.0625 1417.9999,-450.9375Q1442.9999,-500.9375 1495.9686,-530.4688Q1548.9374,-560.0000 1610.0311,-560.0000Z" fill="url(#simGrad)"/></g><g><path transform="translate(383.992,367.640) scale(0.07281)" d="M167.9688,-445.9375Q195.9375,-495.0000 250.0000,-525.9375Q304.0625,-557.0312 372.9688,-557.0312Q447.0312,-557.0312 505.9375,-522.0312Q565.0000,-487.0312 598.9062,-423.4375Q632.9688,-360.0000 632.9688,-275.9375Q632.9688,-192.9688 598.9062,-127.9688Q565.0000,-62.9688 505.4688,-26.8750Q445.9375,9.0625 372.9688,9.0625Q302.0312,9.0625 248.4375,-21.8750Q195.0000,-52.9688 167.9688,-100.9375L167.9688,-0.0000L77.0312,-0.0000L77.0312,-740.0000L167.9688,-740.0000L167.9688,-445.9375ZM540.0000,-275.9375Q540.0000,-337.9688 515.0000,-383.9062Q490.0000,-430.0000 447.5000,-453.9062Q405.0000,-477.9688 354.0625,-477.9688Q304.0625,-477.9688 261.5625,-453.4375Q219.0625,-429.0625 193.4375,-382.5000Q167.9688,-335.9375 167.9688,-275.0000Q167.9688,-212.9688 193.4375,-166.4062Q219.0625,-120.0000 261.5625,-95.4688Q304.0625,-70.9375 354.0625,-70.9375Q405.0000,-70.9375 447.5000,-95.4688Q490.0000,-120.0000 515.0000,-166.4062Q540.0000,-212.9688 540.0000,-275.9375ZM1225.0624,-547.9688L895.0624,257.9688L800.9999,257.9688L908.9687,-5.9375L688.0312,-547.9688L788.9687,-547.9688L960.9999,-104.0625L1130.9999,-547.9688L1225.0624,-547.9688ZM1673.9685,-459.0625Q1698.0310,-505.9375 1742.4060,-531.8750Q1786.9373,-557.9688 1850.9998,-557.9688L1850.9998,-464.0625L1826.9373,-464.0625Q1673.9685,-464.0625 1673.9685,-297.9688L1673.9685,-0.0000L1583.0310,-0.0000L1583.0310,-547.9688L1673.9685,-547.9688L1673.9685,-459.0625ZM1921.9684,-349.0625Q1921.9684,-450.9375 1967.9059,-532.5000Q2013.9996,-614.0625 2093.5309,-660.0000Q2173.0621,-705.9375 2269.9371,-705.9375Q2383.9996,-705.9375 2468.9996,-650.9375Q2553.9996,-595.9375 2593.0621,-495.0000L2483.9996,-495.0000Q2454.9371,-557.9688 2400.4059,-591.8750Q2346.0309,-625.9375 2269.9371,-625.9375Q2196.9684,-625.9375 2138.9996,-591.8750Q2081.0309,-557.9688 2047.9059,-495.4688Q2014.9371,-432.9688 2014.9371,-349.0625Q2014.9371,-265.9375 2047.9059,-203.4375Q2081.0309,-140.9375 2138.9996,-106.8750Q2196.9684,-72.9688 2269.9371,-72.9688Q2346.0309,-72.9688 2400.4059,-106.4062Q2454.9371,-140.0000 2483.9996,-202.9688L2593.0621,-202.9688Q2553.9996,-102.9688 2468.9996,-48.4375Q2383.9996,5.9375 2269.9371,5.9375Q2173.0621,5.9375 2093.5309,-39.5312Q2013.9996,-85.0000 1967.9059,-165.9375Q1921.9684,-247.0312 1921.9684,-349.0625ZM2966.9370,9.0625Q2890.0620,9.0625 2827.5620,-25.9375Q2765.0620,-60.9375 2729.4370,-125.4688Q2693.9682,-190.0000 2693.9682,-275.0000Q2693.9682,-359.0625 2730.3745,-423.4375Q2766.9370,-487.9688 2829.9057,-522.5000Q2893.0307,-557.0312 2970.9995,-557.0312Q3048.9682,-557.0312 3111.9370,-522.5000Q3175.0620,-487.9688 3211.4682,-423.9062Q3248.0307,-360.0000 3248.0307,-275.0000Q3248.0307,-190.0000 3210.5307,-125.4688Q3173.0307,-60.9375 3108.9682,-25.9375Q3045.0620,9.0625 2966.9370,9.0625ZM2966.9370,-70.9375Q3015.9995,-70.9375 3058.9682,-93.9062Q3101.9370,-117.0312 3128.4995,-162.9688Q3155.0620,-209.0625 3155.0620,-275.0000Q3155.0620,-340.9375 3128.9682,-386.8750Q3103.0307,-432.9688 3060.9995,-455.4688Q3018.9682,-477.9688 2970.0620,-477.9688Q2920.0620,-477.9688 2878.4995,-455.4688Q2836.9370,-432.9688 2811.9370,-386.8750Q2786.9370,-340.9375 2786.9370,-275.0000Q2786.9370,-207.9688 2811.4682,-161.8750Q2835.9995,-115.9375 2876.9370,-93.4375Q2918.0307,-70.9375 2966.9370,-70.9375ZM3635.0618,-557.9688Q3735.0618,-557.9688 3796.9368,-497.5000Q3858.9680,-437.0312 3858.9680,-322.9688L3858.9680,-0.0000L3768.9680,-0.0000L3768.9680,-310.0000Q3768.9680,-392.0312 3727.8743,-435.4688Q3686.9368,-479.0625 3615.9993,-479.0625Q3543.9680,-479.0625 3501.4680,-434.0625Q3458.9680,-389.0625 3458.9680,-302.9688L3458.9680,-0.0000L3368.0305,-0.0000L3368.0305,-547.9688L3458.9680,-547.9688L3458.9680,-470.0000Q3485.9993,-512.0312 3532.4055,-535.0000Q3578.9680,-557.9688 3635.0618,-557.9688ZM4230.9991,-472.9688L4115.9991,-472.9688L4115.9991,-0.0000L4025.0616,-0.0000L4025.0616,-472.9688L3953.9679,-472.9688L3953.9679,-547.9688L4025.0616,-547.9688L4025.0616,-587.0312Q4025.0616,-679.0625 4072.5616,-721.5625Q4120.0616,-764.0625 4225.0616,-764.0625L4225.0616,-687.9688Q4165.0616,-687.9688 4140.5304,-664.3750Q4115.9991,-640.9375 4115.9991,-587.0312L4115.9991,-547.9688L4230.9991,-547.9688L4230.9991,-472.9688ZM4384.0616,-637.0312Q4357.9678,-637.0312 4339.9991,-655.0000Q4322.0303,-672.9688 4322.0303,-699.0625Q4322.0303,-725.0000 4339.9991,-742.9688Q4357.9678,-760.9375 4384.0616,-760.9375Q4409.0616,-760.9375 4426.5616,-742.9688Q4444.0616,-725.0000 4444.0616,-699.0625Q4444.0616,-672.9688 4426.5616,-655.0000Q4409.0616,-637.0312 4384.0616,-637.0312ZM4427.9678,-547.9688L4427.9678,-0.0000L4337.0303,-0.0000L4337.0303,-547.9688L4427.9678,-547.9688ZM4808.9677,-557.0312Q4880.0615,-557.0312 4933.4990,-525.9375Q4986.9365,-495.0000 5013.0302,-447.9688L5013.0302,-547.9688L5105.0615,-547.9688L5105.0615,12.0312Q5105.0615,87.0312 5073.0302,145.4688Q5040.9990,204.0625 4981.4677,237.0312Q4921.9365,270.0000 4843.0302,270.0000Q4735.0615,270.0000 4663.0302,218.9062Q4590.9990,167.9688 4578.0302,80.0000L4668.0302,80.0000Q4683.0302,130.0000 4729.9052,160.4688Q4776.9365,190.9375 4843.0302,190.9375Q4918.0302,190.9375 4965.5302,143.9062Q5013.0302,97.0312 5013.0302,12.0312L5013.0302,-102.9688Q4985.9990,-55.0000 4933.0302,-22.9688Q4880.0615,9.0625 4808.9677,9.0625Q4735.9990,9.0625 4676.4677,-26.8750Q4616.9365,-62.9688 4582.8740,-127.9688Q4548.9677,-192.9688 4548.9677,-275.9375Q4548.9677,-360.0000 4582.8740,-423.4375Q4616.9365,-487.0312 4676.4677,-522.0312Q4735.9990,-557.0312 4808.9677,-557.0312ZM5013.0302,-275.0000Q5013.0302,-337.0312 4988.0302,-382.9688Q4963.0302,-429.0625 4920.5302,-453.4375Q4878.0302,-477.9688 4826.9365,-477.9688Q4775.9990,-477.9688 4733.9677,-453.9062Q4691.9365,-430.0000 4666.9365,-383.9062Q4641.9365,-337.9688 4641.9365,-275.9375Q4641.9365,-212.9688 4666.9365,-166.4062Q4691.9365,-120.0000 4733.9677,-95.4688Q4775.9990,-70.9375 4826.9365,-70.9375Q4878.0302,-70.9375 4920.5302,-95.4688Q4963.0302,-120.0000 4988.0302,-166.4062Q5013.0302,-212.9688 5013.0302,-275.0000Z" fill="url(#simGrad)"/></g></svg>